<svg version="1.1" id="Layer_1" xmlns="http://www.w3.org/2000/svg" xmlns:xlink="http://www.w3.org/1999/xlink" x="0px" y="0px"
	 width="100%" viewBox="0 0 1024 1024" enable-background="new 0 0 1024 1024" xml:space="preserve">
<path fill="#000000" opacity="1.000000" stroke="none" 
	d="
M1.000000,979.468628 
	C3.642505,982.893860 3.800604,987.692932 5.898066,991.871704 
	C15.399766,1010.801819 30.379871,1021.559570 51.669033,1021.568237 
	C358.485260,1021.693176 665.301636,1021.569397 972.117737,1021.820374 
	C996.252014,1021.840149 1018.286377,1005.737427 1023.619568,981.820923 
	C1023.795654,981.031250 1024.171021,980.286072 1024.726807,979.260132 
	C1025.000000,994.327332 1025.000000,1009.654602 1025.000000,1024.959961 
	C683.666687,1024.959961 342.333344,1024.959961 1.000000,1024.959961 
	C1.000000,1009.925659 1.000000,994.931458 1.000000,979.468628 
z"/>
<path fill="#000000" opacity="1.000000" stroke="none" 
	d="
M1025.000000,40.531342 
	C1022.250427,35.772629 1021.379517,29.827377 1018.481628,24.615396 
	C1012.612915,14.060197 1003.678772,7.035682 993.078491,1.348130 
	C1003.601440,1.000000 1014.202881,1.000000 1025.000000,1.000000 
	C1025.000000,14.020242 1025.000000,27.041462 1025.000000,40.531342 
z"/>
<path fill="#000000" opacity="1.000000" stroke="none" 
	d="
M33.531342,1.000000 
	C30.576275,3.926466 26.163456,5.096490 22.492893,7.716148 
	C11.057309,15.877655 5.070331,27.339800 1.272240,40.731991 
	C1.000000,27.747093 1.000000,14.494184 1.000000,1.000000 
	C11.686353,1.000000 22.374517,1.000000 33.531342,1.000000 
z"/>
<path fill="#000000" opacity="1.000000" stroke="none" 
	d="
M675.626831,365.053955 
	C703.042969,370.477295 726.628845,382.463287 746.074219,401.978394 
	C761.786621,417.747040 770.829895,437.181580 775.279907,458.839355 
	C777.822571,471.214447 778.739136,483.741943 779.587463,496.354706 
	C780.963318,516.809265 779.277161,536.898987 774.053345,556.542114 
	C764.194397,593.614868 741.062805,620.038330 706.966614,637.109863 
	C689.928284,645.640808 671.591492,649.647461 652.821350,651.246887 
	C621.582031,653.909058 590.240967,651.847046 558.948364,652.347290 
	C547.119873,652.536377 535.280701,652.578430 523.456787,652.277710 
	C518.572998,652.153381 517.246643,653.840332 517.261292,658.590393 
	C517.408997,706.415894 517.352722,754.242065 517.345337,802.068054 
	C517.344238,809.346375 517.324097,809.344482 509.956177,809.344177 
	C480.794006,809.343079 451.631805,809.346436 422.469635,809.340759 
	C415.678772,809.339417 415.654724,809.326111 415.654297,802.437439 
	C415.648987,714.617615 415.651154,626.797729 415.650604,538.977905 
	C415.650574,537.144897 415.540680,535.305481 415.656677,533.480164 
	C415.881927,529.935608 414.495361,528.317322 410.757751,528.339233 
	C393.594360,528.439880 376.429962,528.408997 359.266113,528.366211 
	C355.974152,528.358032 354.232208,529.681213 354.345795,533.102600 
	C354.389984,534.434143 354.342163,535.768555 354.342102,537.101685 
	C354.340027,575.595764 354.342194,614.089844 354.333984,652.583923 
	C354.332550,659.349426 354.312622,659.373352 347.409637,659.375305 
	C317.414246,659.384094 287.418854,659.382385 257.423462,659.373108 
	C250.698547,659.371033 250.662415,659.349976 250.662094,652.918945 
	C250.654648,507.941223 250.680252,362.963470 250.552643,217.985855 
	C250.548203,212.932602 251.980148,211.517334 257.016083,211.527420 
	C332.837463,211.679489 408.668121,210.951950 484.477051,211.937408 
	C521.152100,212.414185 555.345642,222.697281 583.340027,248.210846 
	C603.144043,266.259857 613.301453,289.246490 617.388062,315.342773 
	C619.500366,328.831940 620.863831,342.355377 620.292236,356.008423 
	C620.120605,360.106873 621.888367,361.025818 625.629761,361.079529 
	C642.233643,361.317780 658.854980,361.547791 675.626831,365.053955 
M606.499878,565.651245 
	C617.115173,565.491760 627.712708,566.096069 638.268433,563.731079 
	C660.909058,558.658264 675.777466,546.285706 679.865540,522.472656 
	C681.743042,511.536438 682.186218,500.686432 680.582825,489.767792 
	C677.507690,468.826233 666.763245,454.212006 645.876282,447.909241 
	C636.672607,445.132019 627.145386,444.702148 617.773743,444.570923 
	C585.962097,444.125488 554.140198,444.451782 522.322754,444.333435 
	C518.276917,444.318420 517.273987,445.865051 517.285828,449.672668 
	C517.400208,486.487762 517.409668,523.303589 517.285706,560.118591 
	C517.271118,564.464966 518.644714,565.782349 523.040588,565.751648 
	C550.525879,565.559326 578.013245,565.652039 606.499878,565.651245 
M458.499908,361.642365 
	C477.319519,361.642761 496.140137,361.538605 514.958008,361.721527 
	C519.335266,361.764099 520.801208,360.279602 520.763916,355.941437 
	C520.730713,352.075745 519.720703,348.380493 519.635742,344.554199 
	C518.965820,314.392059 499.054443,296.425354 471.240356,295.641754 
	C434.129944,294.596283 396.968262,295.404144 359.828918,295.304504 
	C355.883484,295.293945 354.244995,296.360168 354.257660,300.676453 
	C354.392609,346.642609 354.388519,392.609467 354.269806,438.575714 
	C354.259033,442.752106 355.664398,444.071899 359.739166,444.031616 
	C376.225586,443.868744 392.716644,443.803894 409.201172,444.039581 
	C414.236359,444.111542 415.796722,442.428802 415.748749,437.407379 
	C415.525970,414.093140 415.764984,390.774567 415.557312,367.460052 
	C415.516052,362.825134 417.005188,361.465088 421.527985,361.562897 
	C433.513580,361.821991 445.508606,361.645264 458.499908,361.642365 
z"/>
</svg>